<?xml version="1.0" encoding="UTF-8" standalone="no"?><!DOCTYPE svg PUBLIC "-//W3C//DTD SVG 1.1//EN" "http://www.w3.org/Graphics/SVG/1.1/DTD/svg11.dtd"><svg width="100%" height="100%" viewBox="0 0 32 32" version="1.1" xmlns="http://www.w3.org/2000/svg" xmlns:xlink="http://www.w3.org/1999/xlink" xml:space="preserve" xmlns:serif="http://www.serif.com/" style="fill-rule:evenodd;clip-rule:evenodd;stroke-linecap:round;stroke-linejoin:round;stroke-miterlimit:1.5;"><g id="icon-toutiao"><circle cx="16" cy="16" r="15" style="fill:#313a56;"/><clipPath id="_clip1"><circle cx="16" cy="16" r="15"/></clipPath><g clip-path="url(#_clip1)"><path d="M0,8.575l0,16.182l32,-1.462l0,-16.052l-32,1.332Zm8.679,3.15l1.508,1.896l-2.067,0.12l-1.503,-1.901l2.062,-0.115Zm0,2.381l1.508,1.896l-2.063,0.111l-1.507,-1.9l2.062,-0.107Zm0.652,7.205l-3.478,0.209l0,-1.231l2.063,-0.12l1.683,-2.22l-3.796,0.218l0,-1.23l5.471,-0.324l0.009,-5.406l1.864,-0.112l0,5.402l2.298,-0.115l0,1.23l-3.482,0.203l-2.632,3.496Zm4.301,-0.254l-1.494,-2.913l2.077,-0.093l1.503,2.895l-2.086,0.111Zm4.791,-11.058l1.494,0.717l6.174,-0.342l0,2.132l-3.048,1.512l2.299,0.856l0.902,-0.06l0,1.244l-1.342,0.083l-3.528,-1.299l-3.432,1.683l-1.345,0.079l0,-1.235l0.883,-0.051l2.238,-1.096l-1.313,-0.5l0.768,-1.128l2.196,0.818l2.863,-1.41l0,-0.296l-5.11,0.277l-1.032,1.633l-1.586,-0.569l1.919,-3.048Zm0.051,10.808l-1.887,0.097l1.263,-2.418l1.868,-0.107l-1.244,2.428Zm2.012,-0.124l0,-2.715l-3.899,0.226l0,-1.244l3.894,-0.203l0.005,-0.624l1.864,-0.111l0,0.624l3.894,-0.222l0,1.235l-3.89,0.217l0.014,2.719l-1.882,0.098Zm4.25,-0.246l-1.383,-2.27l1.878,-0.107l1.369,2.276l-1.864,0.101Z" style="fill:#5983c1;fill-rule:nonzero;"/></g><circle cx="16" cy="16" r="15" style="fill:none;stroke:#5f8ed4;stroke-width:0.3px;"/></g></svg>