<?xml version="1.0" encoding="UTF-8" standalone="no"?><!DOCTYPE svg PUBLIC "-//W3C//DTD SVG 1.1//EN" "http://www.w3.org/Graphics/SVG/1.1/DTD/svg11.dtd"><svg width="100%" height="100%" viewBox="0 0 32 32" version="1.1" xmlns="http://www.w3.org/2000/svg" xmlns:xlink="http://www.w3.org/1999/xlink" xml:space="preserve" xmlns:serif="http://www.serif.com/" style="fill-rule:evenodd;clip-rule:evenodd;stroke-linecap:round;stroke-linejoin:round;stroke-miterlimit:1.5;"><g id="icon-weibo"><circle cx="16" cy="16" r="15" style="fill:#313a56;stroke:#5f8ed4;stroke-width:0.3px;"/><g><path d="M14.456,10.962c-1.268,-0.107 -4.211,0.856 -6.961,5.337c0,0 -2.016,3.625 2.088,5.8c0,0 3.427,2.036 8.264,0.606c0,0 4.909,-1.625 4.461,-5.031c0,0 -0.372,-1.411 -2.108,-1.823c0,0 -0.535,-0.072 -0.234,-0.606c0,0 0.769,-1.569 -0.734,-2.215c0,0 -1.339,-0.321 -2.963,0.499c0,0 -1.069,0.606 -0.555,-0.713c-0.01,-0.015 0.239,-1.726 -1.258,-1.854Zm4.889,7.353c0,1.854 -2.394,3.891 -5.322,3.891c-3.442,0 -5.321,-1.503 -5.321,-3.371c0,-1.854 2.714,-3.641 5.657,-3.641c2.933,0 4.986,1.268 4.986,3.121Z" style="fill:#5983c1;fill-rule:nonzero;"/><path d="M16.381,18.962c-0.087,1.354 -1.232,2.408 -2.75,2.465c-1.838,0.071 -3.05,-0.769 -2.836,-2.429c0.163,-1.355 1.339,-2.501 2.836,-2.501c1.518,0 2.857,0.82 2.75,2.465Zm-1.803,-0.362c0,-0.198 -0.163,-0.356 -0.356,-0.356c-0.194,0 -0.357,0.163 -0.357,0.356c0,0.194 0.163,0.357 0.357,0.357c0.193,0.02 0.356,-0.138 0.356,-0.357Zm-0.962,0.861c0,-0.484 -0.448,-0.876 -0.947,-0.805c-0.499,0.072 -0.983,0.449 -0.983,0.927c0,0.484 0.413,0.84 0.927,0.84c0.519,0.021 1.003,-0.478 1.003,-0.962Zm5.622,-9.049c0.086,-0.035 0.163,-0.051 0.249,-0.071c0.087,-0.015 0.178,-0.036 0.285,-0.051c-0.305,0.036 -0.051,0.015 0,0c0.072,0 0.143,-0.015 0.234,-0.015l0.449,0c0.086,0 0.163,0.015 0.249,0.015c-0.234,-0.035 -0.071,-0.015 -0.015,0c0.056,0.015 0.107,0.015 0.178,0.036c0.178,0.035 0.356,0.086 0.535,0.163c0.051,0.015 0.086,0.035 0.142,0.051c-0.178,-0.072 -0.015,0 0.016,0c0.106,0.051 0.213,0.107 0.336,0.178c0.086,0.051 0.198,0.122 0.285,0.178c0.051,0.036 0.086,0.071 0.142,0.107c-0.142,-0.107 0.016,0.015 0.036,0.036c0.199,0.163 0.372,0.336 0.555,0.534c0.015,0.016 0.143,0.179 0.015,0.016c0.036,0.035 0.051,0.086 0.087,0.122c0.051,0.086 0.107,0.178 0.163,0.249c0.051,0.087 0.086,0.179 0.122,0.27c0.071,0.163 -0.051,-0.163 0,0c0.015,0.051 0.036,0.107 0.071,0.178c0.051,0.163 0.087,0.337 0.123,0.52c0,0.036 0.015,0.086 0.015,0.122c-0.036,-0.234 -0.015,-0.086 0,-0.036c0.015,0.087 0.015,0.179 0.015,0.286c0,0.142 0,0.305 -0.015,0.448c0,0.071 -0.015,0.142 -0.015,0.214c0.035,-0.286 0,0 -0.016,0.05c-0.035,0.199 -0.086,0.372 -0.142,0.556c-0.036,0.106 -0.163,0.371 -0.016,0.05c-0.163,0.357 -0.107,0.785 0.27,0.998c0.321,0.179 0.84,0.107 0.998,-0.269c0.448,-0.983 0.535,-2.159 0.235,-3.213c-0.535,-1.895 -2.394,-3.178 -4.303,-3.336c-0.535,-0.035 -1.126,0 -1.625,0.178c-0.371,0.123 -0.626,0.499 -0.519,0.892c0.056,0.402 0.484,0.687 0.861,0.544Z" style="fill:#5983c1;fill-rule:nonzero;"/><path d="M19.609,12.444c0.051,-0.015 0.087,-0.015 0.143,-0.036c0.163,-0.035 -0.087,0 0.051,0c0.071,0 0.163,-0.015 0.234,-0.015c0.285,0 0.606,0.072 0.84,0.285c0.036,0.036 0.072,0.072 0.122,0.107c0,0 0.107,0.123 0.051,0.072c0.036,0.035 0.051,0.086 0.072,0.122c0.02,0.035 0.035,0.051 0.035,0.086c-0.015,-0.035 -0.015,-0.035 0,0.016c0.036,0.086 0.051,0.178 0.072,0.27c0.035,0.142 0,-0.087 0,0.035l0,0.377c0,0.036 0,0.071 -0.016,0.087c0.016,-0.163 0,-0.016 0,0c-0.015,0.05 -0.015,0.106 -0.035,0.162c-0.072,0.25 0.086,0.535 0.336,0.591c0.27,0.071 0.519,-0.086 0.59,-0.336c0.25,-0.804 0.051,-1.752 -0.59,-2.302c-0.571,-0.519 -1.467,-0.697 -2.215,-0.483c-0.545,0.198 -0.275,1.125 0.31,0.962Z" style="fill:#5983c1;fill-rule:nonzero;"/></g></g></svg>