<?xml version="1.0" encoding="UTF-8" standalone="no"?><!DOCTYPE svg PUBLIC "-//W3C//DTD SVG 1.1//EN" "http://www.w3.org/Graphics/SVG/1.1/DTD/svg11.dtd"><svg width="100%" height="100%" viewBox="0 0 32 32" version="1.1" xmlns="http://www.w3.org/2000/svg" xmlns:xlink="http://www.w3.org/1999/xlink" xml:space="preserve" xmlns:serif="http://www.serif.com/" style="fill-rule:evenodd;clip-rule:evenodd;stroke-linecap:round;stroke-linejoin:round;stroke-miterlimit:1.5;"><g id="icon-QQ"><circle cx="16" cy="16" r="15" style="fill:#313a56;stroke:#5f8ed4;stroke-width:0.3px;"/><path d="M10.051,13.49c0,-3.584 2.694,-6.49 6.02,-6.49c3.324,0 6.021,2.906 6.021,6.49c0,0.137 0.362,0 0.534,0.622c0.035,0.129 0.06,0.624 0.018,1.331c-0.021,0.339 0.916,0.752 1.399,2.563c0.483,1.81 0,2.665 -0.243,2.87c-0.58,0.493 -1.334,-1.62 -1.443,-1.295c-0.263,0.791 -0.386,1.318 -1.165,2.178c-0.042,0.046 0.9,0.381 1.165,1.1c0.255,0.688 0.753,1.777 -2.498,2.118c-1.907,0.201 -3.285,-1.003 -3.422,-0.993c-0.255,0.023 -0.141,0 -0.415,0c-0.223,0 -0.239,0.016 -0.45,0c-0.058,-0.003 -0.691,0.993 -3.526,0.993c-2.198,0 -2.765,-1.365 -2.324,-2.118c0.441,-0.752 1.179,-0.97 1.076,-1.09c-0.512,-0.585 -0.865,-1.212 -1.076,-1.779c-0.053,-0.14 -0.097,-0.277 -0.13,-0.409c-0.081,-0.302 -0.691,1.775 -1.349,1.295c-0.657,-0.479 -0.597,-1.701 -0.172,-2.87c0.429,-1.178 1.51,-2.313 1.521,-2.563c0.042,-0.932 -0.093,-1.086 0,-1.331c0.205,-0.548 0.459,-0.337 0.459,-0.622Z" style="fill:#5983c1;fill-rule:nonzero;"/></g></svg>