<?xml version="1.0" encoding="UTF-8" standalone="no"?><!DOCTYPE svg PUBLIC "-//W3C//DTD SVG 1.1//EN" "http://www.w3.org/Graphics/SVG/1.1/DTD/svg11.dtd"><svg width="100%" height="100%" viewBox="0 0 77 34" version="1.1" xmlns="http://www.w3.org/2000/svg" xmlns:xlink="http://www.w3.org/1999/xlink" xml:space="preserve" xmlns:serif="http://www.serif.com/" style="fill-rule:evenodd;clip-rule:evenodd;stroke-linejoin:round;stroke-miterlimit:1.41421;"><rect id="画板1" x="0" y="0" width="77" height="34" style="fill:none;"/><g id="bbx-logo"><path d="M3.643,1.517l0,0.273c3.677,0 6.725,2.692 7.282,6.212l0,2.879c0,1.062 0.862,1.923 1.924,1.923c1.058,0 2.459,0 3.963,0c5.395,0 9.77,4.375 9.77,9.77c0,0.041 0,0.081 0,0.122c0,2.591 -1.03,5.076 -2.862,6.908c-1.832,1.833 -4.317,2.862 -6.908,2.862l-13.169,0c0,0 0,0 0,-0.001c0,-4.021 3.26,-7.281 7.282,-7.281c2.089,0 4.231,0 5.826,0c1.408,0 2.549,-1.141 2.549,-2.549c0,0 0,0 0,0c0,-1.408 -1.141,-2.549 -2.549,-2.549c-1.672,0 -3.945,0 -6.129,0c-3.854,0 -6.979,-3.124 -6.979,-6.978c0,-5.267 0,-11.591 0,-11.591l0,0Z" style="fill:url(#_Linear1);"/><clipPath id="_clip2"><path d="M3.643,1.517l0,0.273c3.677,0 6.725,2.692 7.282,6.212l0,2.879c0,1.062 0.862,1.923 1.924,1.923c1.058,0 2.459,0 3.963,0c5.395,0 9.77,4.375 9.77,9.77c0,0.041 0,0.081 0,0.122c0,2.591 -1.03,5.076 -2.862,6.908c-1.832,1.833 -4.317,2.862 -6.908,2.862l-13.169,0c0,0 0,0 0,-0.001c0,-4.021 3.26,-7.281 7.282,-7.281c2.089,0 4.231,0 5.826,0c1.408,0 2.549,-1.141 2.549,-2.549c0,0 0,0 0,0c0,-1.408 -1.141,-2.549 -2.549,-2.549c-1.672,0 -3.945,0 -6.129,0c-3.854,0 -6.979,-3.124 -6.979,-6.978c0,-5.267 0,-11.591 0,-11.591l0,0Z"/></clipPath><g clip-path="url(#_clip2)"><path d="M16.751,20.086c1.849,0 8.3,1.721 8.11,8.144c-0.189,6.423 -2.889,5.368 -3.741,5.328c-0.852,-0.039 -5.826,-9.466 -5.826,-9.466l2.185,-2.185c0,0 0.058,-1.575 -0.728,-1.821Z" style="fill:url(#_Linear3);"/><path d="M13.474,12.804c-3.192,0 -9.521,-1.277 -9.831,-5.649c-0.309,-4.373 -0.728,-7.822 -0.728,-7.822l5.826,0l3.277,5.461c0,0 4.648,8.01 1.456,8.01Z" style="fill:url(#_Linear4);"/></g><path d="M47.135,20.366c-0.034,-2.752 0.019,-5.506 0.019,-8.26c0.021,-0.909 0.6,-1.646 1.6,-1.595c0.736,0.077 1.329,0.726 1.383,1.518c0.068,3.037 0.006,6.076 0.002,9.114c0.187,1.814 1.699,3.231 3.533,3.231c1.961,0 3.553,-1.619 3.553,-3.613c0,-1.994 -1.592,-3.613 -3.553,-3.613c-1.06,0 -2.013,0.473 -2.664,1.223l0,-3.694c0.814,-0.369 1.716,-0.575 2.664,-0.575c3.614,0 6.548,2.984 6.548,6.659c0,3.675 -2.934,6.658 -6.548,6.658c-3.147,0 -5.779,-2.263 -6.406,-5.274c-0.057,-0.165 -0.095,-0.356 -0.11,-0.576c-0.001,-0.063 -0.003,-0.126 -0.004,-0.19c-0.019,-0.203 -0.028,-0.41 -0.028,-0.618c0,-0.133 0.004,-0.264 0.011,-0.395Zm-13.869,0c-0.034,-2.752 0.019,-5.506 0.019,-8.26c0.02,-0.909 0.599,-1.646 1.6,-1.595c0.735,0.077 1.328,0.726 1.382,1.518c0.068,3.037 0.007,6.076 0.002,9.114c0.188,1.814 1.699,3.231 3.533,3.231c1.961,0 3.553,-1.619 3.553,-3.613c0,-1.994 -1.592,-3.613 -3.553,-3.613c-1.06,0 -2.012,0.473 -2.663,1.223l0,-3.694c0.813,-0.369 1.715,-0.575 2.663,-0.575c3.614,0 6.548,2.984 6.548,6.659c0,3.675 -2.934,6.658 -6.548,6.658c-3.147,0 -5.779,-2.263 -6.406,-5.274c-0.057,-0.165 -0.095,-0.356 -0.11,-0.576c-0.001,-0.063 -0.002,-0.126 -0.004,-0.19c-0.018,-0.203 -0.028,-0.41 -0.028,-0.618c0,-0.133 0.004,-0.264 0.012,-0.395Zm31.785,0.011l-3.573,-3.634c-0.577,-0.586 -0.577,-1.538 0,-2.124c0.576,-0.586 1.512,-0.586 2.088,0l4.597,4.674c0.294,0.299 0.438,0.692 0.432,1.084c0.006,0.391 -0.138,0.785 -0.432,1.083l-4.597,4.675c-0.576,0.586 -1.512,0.586 -2.088,0c-0.577,-0.586 -0.577,-1.538 0,-2.124l3.573,-3.634Zm8.641,5.758c-0.576,0.586 -1.512,0.586 -2.089,0l-2.37,-2.41c-0.576,-0.586 -0.576,-1.538 0,-2.124c0.577,-0.586 1.512,-0.586 2.089,0l2.37,2.41c0.576,0.586 0.576,1.538 0,2.124Zm0,-11.516c-0.576,-0.586 -1.512,-0.586 -2.089,0l-2.37,2.41c-0.576,0.586 -0.576,1.538 0,2.124c0.577,0.586 1.512,0.586 2.089,0l2.37,-2.41c0.576,-0.586 0.576,-1.538 0,-2.124Z" style="fill:#fff;"/></g><defs><linearGradient id="_Linear1" x1="0" y1="0" x2="1" y2="0" gradientUnits="userSpaceOnUse" gradientTransform="matrix(18.9333,17.2588,-17.2588,18.9333,0.548403,15.207)"><stop offset="0" style="stop-color:#2156ff;stop-opacity:1"/><stop offset="1" style="stop-color:#6fe6ff;stop-opacity:1"/></linearGradient><linearGradient id="_Linear3" x1="0" y1="0" x2="1" y2="0" gradientUnits="userSpaceOnUse" gradientTransform="matrix(-2.54871,4.00511,-4.00511,-2.54871,22.2124,22.2711)"><stop offset="0" style="stop-color:#2d67d4;stop-opacity:1"/><stop offset="1" style="stop-color:#2d67d4;stop-opacity:0"/></linearGradient><linearGradient id="_Linear4" x1="0" y1="0" x2="1" y2="0" gradientUnits="userSpaceOnUse" gradientTransform="matrix(-0.728202,-10.5589,10.5589,-0.728202,7.83043,10.9839)"><stop offset="0" style="stop-color:#6adcff;stop-opacity:1"/><stop offset="1" style="stop-color:#6adcff;stop-opacity:0"/></linearGradient></defs></svg>