<?xml version="1.0" encoding="UTF-8" standalone="no"?><!DOCTYPE svg PUBLIC "-//W3C//DTD SVG 1.1//EN" "http://www.w3.org/Graphics/SVG/1.1/DTD/svg11.dtd"><svg width="100%" height="100%" viewBox="0 0 20 20" version="1.1" xmlns="http://www.w3.org/2000/svg" xmlns:xlink="http://www.w3.org/1999/xlink" xml:space="preserve" xmlns:serif="http://www.serif.com/" style="fill-rule:evenodd;clip-rule:evenodd;stroke-linejoin:round;stroke-miterlimit:1.41421;"><g id="icon-open"><g><path d="M10.116,4.001l0.116,0.002l0.116,0.004l0.115,0.005l0.115,0.006l0.114,0.008l0.114,0.009l0.114,0.011l0.113,0.011l0.113,0.014l0.112,0.014l0.112,0.016l0.111,0.017l0.111,0.018l0.111,0.02l0.11,0.02l0.109,0.022l0.109,0.023l0.109,0.025l0.108,0.025l0.108,0.027l0.107,0.027l0.106,0.029l0.106,0.03l0.105,0.031l0.105,0.032l0.105,0.033l0.103,0.033l0.103,0.035l0.103,0.036l0.102,0.037l0.101,0.038l0.1,0.039l0.1,0.039l0.1,0.041l0.098,0.041l0.098,0.042l0.098,0.043l0.096,0.044l0.096,0.045l0.096,0.045l0.094,0.046l0.094,0.047l0.093,0.048l0.093,0.048l0.091,0.049l0.091,0.05l0.091,0.051l0.089,0.051l0.089,0.051l0.087,0.053l0.087,0.052l0.087,0.054l0.085,0.054l0.085,0.054l0.083,0.056l0.083,0.055l0.082,0.056l0.082,0.057l0.08,0.057l0.08,0.057l0.078,0.058l0.078,0.058l0.077,0.059l0.076,0.059l0.075,0.059l0.074,0.06l0.073,0.06l0.072,0.06l0.071,0.061l0.07,0.061l0.07,0.061l0.068,0.061l0.067,0.062l0.067,0.061l0.065,0.062l0.064,0.062l0.064,0.063l0.062,0.062l0.061,0.062l0.06,0.063l0.059,0.063l0.058,0.062l0.057,0.063l0.056,0.063l0.055,0.062l0.054,0.063l0.052,0.063l0.051,0.063l0.051,0.062l0.049,0.063l0.048,0.062l0.047,0.062l0.045,0.063l0.045,0.062l0.043,0.061l0.042,0.062l0.041,0.062l0.04,0.061l0.039,0.061l0.037,0.061l0.036,0.06l0.035,0.06l0.033,0.06l0.032,0.06l0.031,0.059l0.03,0.059l0.028,0.059l0.028,0.058l0.025,0.057l0.025,0.058l0.023,0.056l0.022,0.057l0.02,0.056l0.019,0.055l0.018,0.055l0.017,0.054l0.015,0.054l0.013,0.054l0.012,0.052l0.011,0.052l0.01,0.052l0.008,0.051l0.006,0.05l0.005,0.049l0.004,0.049l0.002,0.048l0.001,0.048l-0.001,0.047l-0.002,0.048l-0.004,0.049l-0.005,0.05l-0.006,0.05l-0.008,0.051l-0.01,0.051l-0.011,0.052l-0.012,0.053l-0.013,0.053l-0.015,0.054l-0.017,0.055l-0.018,0.054l-0.019,0.056l-0.02,0.056l-0.022,0.056l-0.023,0.057l-0.025,0.057l-0.025,0.058l-0.028,0.058l-0.028,0.059l-0.03,0.059l-0.031,0.059l-0.032,0.059l-0.033,0.06l-0.035,0.06l-0.036,0.061l-0.037,0.061l-0.039,0.061l-0.04,0.061l-0.041,0.061l-0.042,0.062l-0.043,0.062l-0.045,0.062l-0.045,0.062l-0.047,0.062l-0.048,0.063l-0.049,0.062l-0.051,0.063l-0.051,0.063l-0.052,0.062l-0.054,0.063l-0.055,0.063l-0.056,0.063l-0.057,0.062l-0.058,0.063l-0.059,0.063l-0.06,0.062l-0.061,0.063l-0.062,0.062l-0.064,0.062l-0.064,0.062l-0.065,0.062l-0.067,0.062l-0.067,0.061l-0.068,0.062l-0.07,0.061l-0.07,0.061l-0.071,0.06l-0.072,0.061l-0.073,0.06l-0.074,0.059l-0.075,0.06l-0.076,0.059l-0.077,0.058l-0.078,0.059l-0.078,0.057l-0.08,0.058l-0.08,0.057l-0.082,0.056l-0.082,0.056l-0.083,0.056l-0.083,0.055l-0.085,0.055l-0.085,0.054l-0.087,0.053l-0.087,0.053l-0.087,0.052l-0.089,0.052l-0.089,0.051l-0.091,0.05l-0.091,0.05l-0.091,0.049l-0.093,0.049l-0.093,0.047l-0.094,0.047l-0.094,0.046l-0.096,0.046l-0.096,0.045l-0.096,0.043l-0.098,0.043l-0.098,0.043l-0.098,0.041l-0.1,0.04l-0.1,0.04l-0.1,0.039l-0.101,0.038l-0.102,0.036l-0.103,0.036l-0.103,0.035l-0.103,0.034l-0.105,0.033l-0.105,0.032l-0.105,0.031l-0.106,0.03l-0.106,0.028l-0.107,0.028l-0.108,0.026l-0.108,0.026l-0.109,0.024l-0.109,0.023l-0.109,0.022l-0.11,0.021l-0.111,0.019l-0.111,0.019l-0.111,0.017l-0.112,0.015l-0.112,0.015l-0.113,0.013l-0.113,0.012l-0.114,0.011l-0.114,0.009l-0.114,0.008l-0.115,0.006l-0.115,0.005l-0.116,0.004l-0.116,0.002l-0.116,0.001l-0.116,-0.001l-0.116,-0.002l-0.116,-0.004l-0.115,-0.005l-0.115,-0.006l-0.114,-0.008l-0.114,-0.009l-0.114,-0.011l-0.113,-0.012l-0.113,-0.013l-0.112,-0.015l-0.112,-0.015l-0.111,-0.017l-0.111,-0.019l-0.111,-0.019l-0.11,-0.021l-0.109,-0.022l-0.109,-0.023l-0.109,-0.024l-0.108,-0.026l-0.108,-0.026l-0.107,-0.028l-0.106,-0.028l-0.106,-0.03l-0.105,-0.031l-0.105,-0.032l-0.105,-0.033l-0.103,-0.034l-0.103,-0.035l-0.103,-0.036l-0.102,-0.036l-0.101,-0.038l-0.1,-0.039l-0.1,-0.04l-0.1,-0.04l-0.098,-0.041l-0.098,-0.043l-0.098,-0.043l-0.096,-0.043l-0.096,-0.045l-0.096,-0.046l-0.094,-0.046l-0.094,-0.047l-0.093,-0.047l-0.093,-0.049l-0.091,-0.049l-0.091,-0.05l-0.091,-0.05l-0.089,-0.051l-0.089,-0.052l-0.087,-0.052l-0.087,-0.053l-0.087,-0.053l-0.085,-0.054l-0.085,-0.055l-0.083,-0.055l-0.083,-0.056l-0.082,-0.056l-0.082,-0.056l-0.08,-0.057l-0.08,-0.058l-0.078,-0.057l-0.078,-0.059l-0.077,-0.058l-0.076,-0.059l-0.075,-0.06l-0.074,-0.059l-0.073,-0.06l-0.072,-0.061l-0.071,-0.06l-0.07,-0.061l-0.07,-0.061l-0.068,-0.062l-0.067,-0.061l-0.067,-0.062l-0.065,-0.062l-0.064,-0.062l-0.064,-0.062l-0.062,-0.062l-0.061,-0.063l-0.06,-0.062l-0.059,-0.063l-0.058,-0.063l-0.057,-0.062l-0.056,-0.063l-0.055,-0.063l-0.054,-0.063l-0.052,-0.062l-0.051,-0.063l-0.051,-0.063l-0.049,-0.062l-0.048,-0.063l-0.047,-0.062l-0.045,-0.062l-0.045,-0.062l-0.043,-0.062l-0.042,-0.062l-0.041,-0.061l-0.04,-0.061l-0.039,-0.061l-0.037,-0.061l-0.036,-0.061l-0.035,-0.06l-0.033,-0.06l-0.032,-0.059l-0.031,-0.059l-0.03,-0.059l-0.028,-0.059l-0.028,-0.058l-0.025,-0.058l-0.025,-0.057l-0.023,-0.057l-0.022,-0.056l-0.02,-0.056l-0.019,-0.056l-0.018,-0.054l-0.017,-0.055l-0.015,-0.054l-0.013,-0.053l-0.012,-0.053l-0.011,-0.052l-0.01,-0.051l-0.008,-0.051l-0.006,-0.05l-0.005,-0.05l-0.004,-0.049l-0.002,-0.048l-0.001,-0.047l0.001,-0.048l0.002,-0.048l0.004,-0.049l0.005,-0.049l0.006,-0.05l0.008,-0.051l0.01,-0.052l0.011,-0.052l0.012,-0.052l0.013,-0.054l0.015,-0.054l0.017,-0.054l0.018,-0.055l0.019,-0.055l0.02,-0.056l0.022,-0.057l0.023,-0.056l0.025,-0.058l0.025,-0.057l0.028,-0.058l0.028,-0.059l0.03,-0.059l0.031,-0.059l0.032,-0.06l0.033,-0.06l0.035,-0.06l0.036,-0.06l0.037,-0.061l0.039,-0.061l0.04,-0.061l0.041,-0.062l0.042,-0.062l0.043,-0.061l0.045,-0.062l0.045,-0.063l0.047,-0.062l0.048,-0.062l0.049,-0.063l0.051,-0.062l0.051,-0.063l0.052,-0.063l0.054,-0.063l0.055,-0.062l0.056,-0.063l0.057,-0.063l0.058,-0.062l0.059,-0.063l0.06,-0.063l0.061,-0.062l0.062,-0.062l0.064,-0.063l0.064,-0.062l0.065,-0.062l0.067,-0.061l0.067,-0.062l0.068,-0.061l0.07,-0.061l0.07,-0.061l0.071,-0.061l0.072,-0.06l0.073,-0.06l0.074,-0.06l0.075,-0.059l0.076,-0.059l0.077,-0.059l0.078,-0.058l0.078,-0.058l0.08,-0.057l0.08,-0.057l0.082,-0.057l0.082,-0.056l0.083,-0.055l0.083,-0.056l0.085,-0.054l0.085,-0.054l0.087,-0.054l0.087,-0.052l0.087,-0.053l0.089,-0.051l0.089,-0.051l0.091,-0.051l0.091,-0.05l0.091,-0.049l0.093,-0.048l0.093,-0.048l0.094,-0.047l0.094,-0.046l0.096,-0.045l0.096,-0.045l0.096,-0.044l0.098,-0.043l0.098,-0.042l0.098,-0.041l0.1,-0.041l0.1,-0.039l0.1,-0.039l0.101,-0.038l0.102,-0.037l0.103,-0.036l0.103,-0.035l0.103,-0.033l0.105,-0.033l0.105,-0.032l0.105,-0.031l0.106,-0.03l0.106,-0.029l0.107,-0.027l0.108,-0.027l0.108,-0.025l0.109,-0.025l0.109,-0.023l0.109,-0.022l0.11,-0.02l0.111,-0.02l0.111,-0.018l0.111,-0.017l0.112,-0.016l0.112,-0.014l0.113,-0.014l0.113,-0.011l0.114,-0.011l0.114,-0.009l0.114,-0.008l0.115,-0.006l0.115,-0.005l0.116,-0.004l0.116,-0.002l0.116,-0.001l0.116,0.001Zm-0.217,1l-0.104,0.002l-0.107,0.003l-0.104,0.004l-0.099,0.006l-0.103,0.007l-0.102,0.008l-0.101,0.01l-0.101,0.01l-0.101,0.012l-0.104,0.014l-0.099,0.013l-0.096,0.015l-0.102,0.017l-0.102,0.018l-0.094,0.017l-0.101,0.021l-0.1,0.021l-0.093,0.02l-0.098,0.024l-0.099,0.024l-0.096,0.025l-0.097,0.026l-0.096,0.027l-0.094,0.028l-0.096,0.029l-0.095,0.03l-0.09,0.029l-0.097,0.034l-0.094,0.032l-0.089,0.032l-0.093,0.035l-0.091,0.035l-0.09,0.035l-0.09,0.037l-0.091,0.038l-0.088,0.038l-0.087,0.039l-0.091,0.041l-0.088,0.041l-0.085,0.041l-0.087,0.042l-0.085,0.043l-0.084,0.042l-0.081,0.043l-0.087,0.047l-0.084,0.046l-0.081,0.045l-0.083,0.048l-0.081,0.047l-0.08,0.047l-0.078,0.048l-0.079,0.048l-0.077,0.049l-0.077,0.05l-0.079,0.052l-0.076,0.051l-0.072,0.049l-0.074,0.052l-0.075,0.053l-0.073,0.052l-0.068,0.05l-0.073,0.055l-0.07,0.053l-0.065,0.052l-0.073,0.057l-0.067,0.054l-0.063,0.052l-0.067,0.056l-0.064,0.054l-0.063,0.055l-0.064,0.057l-0.064,0.056l-0.06,0.055l-0.056,0.052l-0.063,0.06l-0.057,0.054l-0.052,0.053l-0.06,0.06l-0.054,0.054l-0.055,0.058l-0.051,0.053l-0.048,0.052l-0.053,0.06l-0.051,0.056l-0.047,0.054l-0.048,0.057l-0.044,0.052l-0.044,0.054l-0.047,0.059l-0.043,0.054l-0.038,0.048l-0.041,0.056l-0.042,0.057l-0.039,0.054l-0.032,0.045l-0.036,0.054l-0.037,0.055l-0.032,0.048l-0.03,0.048l-0.03,0.05l-0.032,0.054l-0.028,0.049l-0.025,0.044l-0.026,0.048l-0.024,0.045l-0.024,0.049l-0.023,0.047l-0.02,0.043l-0.018,0.04l-0.018,0.042l-0.017,0.04l-0.015,0.04l-0.014,0.038l-0.013,0.038l-0.012,0.038l-0.011,0.034l-0.009,0.034l-0.006,0.024l-0.007,0.032l-0.008,0.039l-0.006,0.029l-0.003,0.018l-0.003,0.025l-0.003,0.025l-0.001,0.012l0,0.022l-0.001,0.019l0.001,0.019l0,0.021l0.001,0.013l0.003,0.025l0.003,0.025l0.003,0.017l0.006,0.03l0.008,0.039l0.007,0.031l0.006,0.025l0.009,0.033l0.011,0.035l0.012,0.038l0.013,0.038l0.014,0.038l0.015,0.04l0.016,0.037l0.019,0.044l0.019,0.043l0.019,0.041l0.023,0.047l0.024,0.049l0.024,0.045l0.026,0.048l0.025,0.044l0.028,0.049l0.032,0.053l0.03,0.05l0.03,0.048l0.032,0.048l0.073,0.109l0.034,0.049l0.037,0.05l0.04,0.055l0.043,0.057l0.04,0.053l0.041,0.051l0.045,0.056l0.046,0.056l0.046,0.056l0.046,0.053l0.047,0.055l0.051,0.056l0.053,0.06l0.048,0.051l0.051,0.054l0.055,0.058l0.054,0.054l0.057,0.057l0.055,0.055l0.12,0.114l0.056,0.053l0.06,0.054l0.064,0.057l0.064,0.057l0.063,0.055l0.064,0.054l0.067,0.056l0.063,0.052l0.14,0.111l0.065,0.052l0.143,0.107l0.068,0.051l0.073,0.052l0.075,0.053l0.074,0.052l0.072,0.049l0.076,0.051l0.079,0.052l0.077,0.05l0.077,0.048l0.079,0.049l0.078,0.048l0.08,0.047l0.081,0.047l0.083,0.047l0.081,0.046l0.084,0.046l0.087,0.046l0.081,0.044l0.084,0.042l0.085,0.043l0.087,0.042l0.085,0.041l0.179,0.082l0.087,0.039l0.088,0.038l0.091,0.037l0.09,0.037l0.09,0.036l0.087,0.033l0.19,0.069l0.093,0.033l0.094,0.032l0.09,0.03l0.095,0.029l0.096,0.03l0.094,0.027l0.096,0.027l0.097,0.026l0.096,0.025l0.099,0.024l0.094,0.023l0.197,0.043l0.199,0.039l0.197,0.033l0.202,0.03l0.1,0.012l0.101,0.013l0.101,0.01l0.101,0.01l0.102,0.008l0.103,0.007l0.099,0.005l0.104,0.004l0.107,0.004l0.104,0.002l0.101,0.001l0.101,-0.001l0.104,-0.002l0.107,-0.004l0.104,-0.004l0.099,-0.005l0.103,-0.007l0.102,-0.008l0.101,-0.01l0.101,-0.01l0.101,-0.013l0.1,-0.012l0.103,-0.015l0.099,-0.015l0.099,-0.017l0.098,-0.016l0.098,-0.019l0.101,-0.02l0.1,-0.022l0.097,-0.021l0.094,-0.023l0.099,-0.024l0.096,-0.025l0.097,-0.026l0.096,-0.027l0.094,-0.027l0.096,-0.03l0.095,-0.029l0.09,-0.03l0.094,-0.032l0.093,-0.033l0.097,-0.035l0.093,-0.034l0.087,-0.033l0.09,-0.036l0.09,-0.037l0.091,-0.037l0.088,-0.038l0.087,-0.039l0.091,-0.042l0.088,-0.04l0.085,-0.041l0.087,-0.042l0.085,-0.043l0.084,-0.042l0.081,-0.044l0.087,-0.046l0.084,-0.046l0.081,-0.046l0.083,-0.047l0.081,-0.047l0.08,-0.047l0.078,-0.048l0.079,-0.049l0.077,-0.048l0.077,-0.05l0.079,-0.052l0.076,-0.051l0.072,-0.049l0.074,-0.052l0.075,-0.053l0.073,-0.052l0.068,-0.051l0.073,-0.054l0.07,-0.053l0.065,-0.052l0.073,-0.058l0.067,-0.053l0.063,-0.052l0.067,-0.056l0.064,-0.054l0.063,-0.055l0.064,-0.057l0.064,-0.057l0.06,-0.054l0.056,-0.053l0.06,-0.057l0.06,-0.057l0.055,-0.055l0.057,-0.057l0.054,-0.054l0.055,-0.058l0.051,-0.054l0.048,-0.051l0.053,-0.06l0.051,-0.056l0.047,-0.055l0.046,-0.053l0.046,-0.056l0.046,-0.056l0.045,-0.056l0.041,-0.051l0.04,-0.053l0.043,-0.057l0.04,-0.055l0.037,-0.05l0.034,-0.049l0.038,-0.056l0.035,-0.053l0.032,-0.048l0.03,-0.048l0.03,-0.05l0.032,-0.053l0.028,-0.049l0.025,-0.044l0.026,-0.048l0.024,-0.045l0.024,-0.049l0.023,-0.047l0.019,-0.041l0.019,-0.043l0.019,-0.044l0.016,-0.037l0.015,-0.04l0.014,-0.038l0.013,-0.038l0.012,-0.038l0.011,-0.035l0.009,-0.033l0.006,-0.025l0.007,-0.031l0.008,-0.039l0.006,-0.03l0.003,-0.017l0.003,-0.025l0.003,-0.025l0.001,-0.013l0,-0.021l0.001,-0.019l-0.001,-0.019l0,-0.022l-0.001,-0.012l-0.003,-0.025l-0.003,-0.025l-0.003,-0.018l-0.006,-0.029l-0.008,-0.039l-0.007,-0.032l-0.006,-0.024l-0.009,-0.034l-0.011,-0.034l-0.012,-0.038l-0.013,-0.038l-0.014,-0.038l-0.015,-0.04l-0.017,-0.04l-0.018,-0.042l-0.018,-0.04l-0.02,-0.043l-0.023,-0.047l-0.024,-0.049l-0.024,-0.045l-0.026,-0.048l-0.025,-0.044l-0.028,-0.049l-0.032,-0.054l-0.03,-0.05l-0.03,-0.048l-0.032,-0.048l-0.037,-0.055l-0.036,-0.054l-0.032,-0.045l-0.039,-0.054l-0.042,-0.057l-0.041,-0.056l-0.038,-0.048l-0.043,-0.054l-0.047,-0.059l-0.044,-0.054l-0.044,-0.052l-0.048,-0.057l-0.047,-0.054l-0.051,-0.056l-0.053,-0.06l-0.048,-0.052l-0.051,-0.053l-0.055,-0.058l-0.054,-0.054l-0.06,-0.06l-0.052,-0.053l-0.057,-0.054l-0.063,-0.06l-0.056,-0.052l-0.06,-0.055l-0.064,-0.056l-0.064,-0.057l-0.063,-0.055l-0.064,-0.054l-0.067,-0.056l-0.063,-0.052l-0.067,-0.054l-0.073,-0.057l-0.065,-0.052l-0.07,-0.053l-0.073,-0.055l-0.068,-0.05l-0.073,-0.052l-0.075,-0.053l-0.074,-0.052l-0.072,-0.049l-0.076,-0.051l-0.079,-0.052l-0.077,-0.05l-0.077,-0.049l-0.079,-0.048l-0.078,-0.048l-0.08,-0.047l-0.081,-0.047l-0.083,-0.048l-0.081,-0.045l-0.084,-0.046l-0.087,-0.047l-0.081,-0.043l-0.084,-0.042l-0.085,-0.043l-0.087,-0.042l-0.085,-0.041l-0.088,-0.041l-0.091,-0.041l-0.087,-0.039l-0.088,-0.038l-0.091,-0.038l-0.09,-0.037l-0.09,-0.035l-0.091,-0.035l-0.093,-0.035l-0.089,-0.032l-0.094,-0.032l-0.097,-0.034l-0.09,-0.029l-0.095,-0.03l-0.096,-0.029l-0.094,-0.028l-0.096,-0.027l-0.097,-0.026l-0.096,-0.025l-0.099,-0.024l-0.098,-0.024l-0.093,-0.02l-0.1,-0.021l-0.101,-0.021l-0.094,-0.017l-0.102,-0.018l-0.102,-0.017l-0.096,-0.015l-0.099,-0.013l-0.104,-0.014l-0.101,-0.012l-0.101,-0.01l-0.101,-0.01l-0.102,-0.008l-0.103,-0.007l-0.099,-0.006l-0.104,-0.004l-0.107,-0.003l-0.104,-0.002l-0.101,-0.001l-0.101,0.001Z" style="fill:#cdd5df;"/><path d="M10.074,7.143l0.074,0.002l0.074,0.005l0.073,0.007l0.072,0.008l0.072,0.01l0.071,0.012l0.071,0.013l0.07,0.016l0.069,0.016l0.069,0.019l0.068,0.02l0.067,0.022l0.067,0.024l0.065,0.025l0.065,0.026l0.065,0.028l0.063,0.03l0.063,0.031l0.061,0.033l0.061,0.034l0.06,0.035l0.059,0.037l0.058,0.038l0.057,0.04l0.056,0.041l0.055,0.042l0.054,0.043l0.053,0.045l0.051,0.046l0.051,0.047l0.05,0.048l0.048,0.05l0.047,0.05l0.046,0.052l0.045,0.053l0.043,0.054l0.042,0.055l0.041,0.056l0.04,0.057l0.038,0.058l0.037,0.059l0.035,0.06l0.034,0.06l0.033,0.062l0.031,0.063l0.029,0.063l0.029,0.064l0.026,0.065l0.025,0.066l0.024,0.067l0.021,0.067l0.021,0.068l0.018,0.069l0.017,0.069l0.016,0.07l0.013,0.071l0.012,0.071l0.01,0.072l0.008,0.072l0.007,0.073l0.004,0.074l0.003,0.073l0.001,0.075l-0.001,0.074l-0.003,0.074l-0.004,0.073l-0.007,0.073l-0.008,0.073l-0.01,0.071l-0.012,0.072l-0.013,0.07l-0.016,0.07l-0.017,0.07l-0.018,0.068l-0.021,0.068l-0.021,0.068l-0.024,0.066l-0.025,0.066l-0.026,0.065l-0.029,0.064l-0.029,0.064l-0.031,0.062l-0.033,0.062l-0.034,0.061l-0.035,0.06l-0.037,0.059l-0.038,0.058l-0.04,0.057l-0.041,0.056l-0.042,0.055l-0.043,0.054l-0.045,0.053l-0.046,0.051l-0.047,0.051l-0.048,0.049l-0.05,0.049l-0.051,0.047l-0.051,0.046l-0.053,0.044l-0.054,0.044l-0.055,0.042l-0.056,0.041l-0.057,0.039l-0.058,0.039l-0.059,0.036l-0.06,0.036l-0.061,0.034l-0.061,0.032l-0.063,0.032l-0.063,0.029l-0.065,0.028l-0.065,0.027l-0.065,0.025l-0.067,0.023l-0.067,0.022l-0.068,0.021l-0.069,0.018l-0.069,0.017l-0.07,0.015l-0.071,0.014l-0.071,0.012l-0.072,0.01l-0.072,0.008l-0.073,0.007l-0.074,0.004l-0.074,0.003l-0.074,0.001l-0.074,-0.001l-0.074,-0.003l-0.074,-0.004l-0.073,-0.007l-0.072,-0.008l-0.072,-0.01l-0.071,-0.012l-0.071,-0.014l-0.07,-0.015l-0.069,-0.017l-0.069,-0.018l-0.068,-0.021l-0.067,-0.022l-0.067,-0.023l-0.065,-0.025l-0.065,-0.027l-0.065,-0.028l-0.063,-0.029l-0.063,-0.032l-0.061,-0.032l-0.061,-0.034l-0.06,-0.036l-0.059,-0.036l-0.058,-0.039l-0.057,-0.039l-0.056,-0.041l-0.055,-0.042l-0.054,-0.044l-0.053,-0.044l-0.051,-0.046l-0.051,-0.047l-0.05,-0.049l-0.048,-0.049l-0.047,-0.051l-0.046,-0.051l-0.045,-0.053l-0.043,-0.054l-0.042,-0.055l-0.041,-0.056l-0.04,-0.057l-0.038,-0.058l-0.037,-0.059l-0.035,-0.06l-0.034,-0.061l-0.033,-0.062l-0.031,-0.062l-0.029,-0.064l-0.029,-0.064l-0.026,-0.065l-0.025,-0.066l-0.024,-0.066l-0.021,-0.068l-0.021,-0.068l-0.018,-0.068l-0.017,-0.07l-0.016,-0.07l-0.013,-0.07l-0.012,-0.072l-0.01,-0.071l-0.008,-0.073l-0.007,-0.073l-0.004,-0.073l-0.003,-0.074l-0.001,-0.074l0.001,-0.075l0.003,-0.073l0.004,-0.074l0.007,-0.073l0.008,-0.072l0.01,-0.072l0.012,-0.071l0.013,-0.071l0.016,-0.07l0.017,-0.069l0.018,-0.069l0.021,-0.068l0.021,-0.067l0.024,-0.067l0.025,-0.066l0.026,-0.065l0.029,-0.064l0.029,-0.063l0.031,-0.063l0.033,-0.062l0.034,-0.06l0.035,-0.06l0.037,-0.059l0.038,-0.058l0.04,-0.057l0.041,-0.056l0.042,-0.055l0.043,-0.054l0.045,-0.053l0.046,-0.052l0.047,-0.05l0.048,-0.05l0.05,-0.048l0.051,-0.047l0.051,-0.046l0.053,-0.045l0.054,-0.043l0.055,-0.042l0.056,-0.041l0.057,-0.04l0.058,-0.038l0.059,-0.037l0.06,-0.035l0.061,-0.034l0.061,-0.033l0.063,-0.031l0.063,-0.03l0.065,-0.028l0.065,-0.026l0.065,-0.025l0.067,-0.024l0.067,-0.022l0.068,-0.02l0.069,-0.019l0.069,-0.016l0.07,-0.016l0.071,-0.013l0.071,-0.012l0.072,-0.01l0.072,-0.008l0.073,-0.007l0.074,-0.005l0.074,-0.002l0.074,-0.001l0.074,0.001Zm-0.125,1l-0.047,0.001l-0.044,0.003l-0.053,0.005l-0.046,0.005l-0.047,0.007l-0.046,0.007l-0.046,0.009l-0.047,0.01l-0.042,0.011l-0.045,0.012l-0.045,0.013l-0.042,0.014l-0.046,0.016l-0.045,0.017l-0.039,0.016l-0.04,0.018l-0.047,0.021l-0.037,0.019l-0.038,0.02l-0.045,0.025l-0.037,0.022l-0.037,0.023l-0.039,0.026l-0.036,0.025l-0.037,0.027l-0.04,0.031l-0.034,0.026l-0.035,0.03l-0.03,0.026l-0.03,0.029l-0.037,0.036l-0.032,0.033l-0.031,0.034l-0.033,0.036l-0.025,0.03l-0.028,0.036l-0.034,0.043l-0.024,0.032l-0.022,0.032l-0.027,0.041l-0.026,0.042l-0.021,0.036l-0.02,0.036l-0.022,0.042l-0.022,0.044l-0.019,0.04l-0.017,0.039l-0.018,0.045l-0.019,0.05l-0.016,0.042l-0.011,0.034l-0.012,0.044l-0.014,0.051l-0.011,0.044l-0.01,0.045l-0.009,0.046l-0.007,0.047l-0.007,0.047l-0.005,0.048l-0.005,0.049l-0.003,0.042l-0.001,0.05l-0.001,0.051l0.001,0.051l0.001,0.05l0.003,0.042l0.005,0.049l0.005,0.048l0.007,0.048l0.007,0.046l0.009,0.046l0.01,0.045l0.011,0.044l0.014,0.051l0.012,0.043l0.011,0.035l0.016,0.042l0.018,0.048l0.019,0.046l0.018,0.041l0.017,0.037l0.022,0.044l0.024,0.045l0.02,0.037l0.02,0.034l0.026,0.041l0.027,0.041l0.022,0.033l0.024,0.032l0.034,0.043l0.028,0.036l0.025,0.03l0.033,0.036l0.031,0.034l0.032,0.032l0.035,0.034l0.032,0.031l0.033,0.029l0.032,0.027l0.034,0.027l0.04,0.031l0.037,0.027l0.036,0.025l0.039,0.026l0.037,0.023l0.037,0.022l0.045,0.025l0.038,0.02l0.037,0.018l0.047,0.022l0.04,0.018l0.039,0.015l0.045,0.017l0.046,0.017l0.042,0.014l0.042,0.012l0.048,0.013l0.046,0.011l0.043,0.01l0.046,0.009l0.046,0.007l0.047,0.007l0.046,0.005l0.049,0.004l0.048,0.003l0.051,0.002l0.047,0.001l0.047,-0.001l0.051,-0.002l0.048,-0.003l0.049,-0.004l0.046,-0.005l0.047,-0.007l0.046,-0.007l0.046,-0.009l0.043,-0.01l0.046,-0.011l0.048,-0.013l0.042,-0.012l0.042,-0.014l0.046,-0.017l0.045,-0.017l0.039,-0.015l0.04,-0.018l0.047,-0.022l0.037,-0.018l0.038,-0.02l0.045,-0.025l0.037,-0.022l0.037,-0.023l0.039,-0.026l0.036,-0.025l0.037,-0.027l0.04,-0.031l0.034,-0.027l0.032,-0.027l0.033,-0.029l0.032,-0.031l0.035,-0.034l0.032,-0.032l0.031,-0.034l0.033,-0.036l0.029,-0.035l0.025,-0.031l0.029,-0.038l0.028,-0.037l0.022,-0.033l0.027,-0.041l0.026,-0.041l0.02,-0.034l0.02,-0.037l0.024,-0.045l0.022,-0.044l0.017,-0.037l0.018,-0.041l0.019,-0.046l0.018,-0.048l0.016,-0.042l0.011,-0.035l0.012,-0.043l0.014,-0.051l0.011,-0.044l0.01,-0.045l0.009,-0.046l0.007,-0.046l0.007,-0.048l0.005,-0.048l0.005,-0.049l0.003,-0.042l0.001,-0.05l0.001,-0.051l-0.001,-0.051l-0.001,-0.05l-0.003,-0.042l-0.005,-0.049l-0.005,-0.048l-0.007,-0.047l-0.007,-0.047l-0.009,-0.046l-0.01,-0.045l-0.011,-0.044l-0.014,-0.051l-0.012,-0.044l-0.011,-0.034l-0.016,-0.042l-0.019,-0.05l-0.018,-0.045l-0.017,-0.039l-0.019,-0.04l-0.022,-0.044l-0.022,-0.042l-0.02,-0.036l-0.021,-0.036l-0.026,-0.042l-0.027,-0.041l-0.022,-0.032l-0.028,-0.037l-0.029,-0.038l-0.025,-0.031l-0.029,-0.035l-0.033,-0.036l-0.031,-0.034l-0.032,-0.033l-0.037,-0.036l-0.03,-0.029l-0.03,-0.026l-0.035,-0.03l-0.034,-0.026l-0.04,-0.031l-0.037,-0.027l-0.036,-0.025l-0.039,-0.026l-0.037,-0.023l-0.037,-0.022l-0.045,-0.025l-0.038,-0.02l-0.037,-0.019l-0.047,-0.021l-0.04,-0.018l-0.039,-0.016l-0.045,-0.017l-0.046,-0.016l-0.042,-0.014l-0.045,-0.013l-0.045,-0.012l-0.042,-0.011l-0.047,-0.01l-0.046,-0.009l-0.046,-0.007l-0.047,-0.007l-0.046,-0.005l-0.053,-0.005l-0.044,-0.003l-0.047,-0.001l-0.051,-0.001l-0.051,0.001Z" style="fill:#cdd5df;"/></g><rect x="0" y="0" width="20" height="20" style="fill:none;"/></g></svg>