<?xml version="1.0" encoding="UTF-8" standalone="no"?><!DOCTYPE svg PUBLIC "-//W3C//DTD SVG 1.1//EN" "http://www.w3.org/Graphics/SVG/1.1/DTD/svg11.dtd"><svg width="100%" height="100%" viewBox="0 0 22 22" version="1.1" xmlns="http://www.w3.org/2000/svg" xmlns:xlink="http://www.w3.org/1999/xlink" xml:space="preserve" xmlns:serif="http://www.serif.com/" style="fill-rule:evenodd;clip-rule:evenodd;stroke-linecap:round;stroke-linejoin:round;stroke-miterlimit:1.5;"><g id="icon-counter_nor"><g><path d="M15.577,3.501l0.077,0.003l0.077,0.005l0.076,0.007l0.075,0.008l0.075,0.011l0.074,0.012l0.073,0.014l0.073,0.016l0.072,0.018l0.072,0.019l0.071,0.021l0.07,0.023l0.069,0.024l0.069,0.026l0.067,0.028l0.067,0.029l0.066,0.031l0.065,0.032l0.064,0.034l0.064,0.036l0.062,0.037l0.061,0.038l0.061,0.04l0.059,0.041l0.058,0.042l0.058,0.044l0.056,0.045l0.055,0.047l0.054,0.048l0.052,0.049l0.052,0.05l0.05,0.052l0.049,0.052l0.048,0.054l0.047,0.055l0.045,0.056l0.044,0.058l0.042,0.058l0.041,0.059l0.04,0.061l0.038,0.061l0.037,0.062l0.036,0.064l0.034,0.064l0.032,0.065l0.031,0.066l0.029,0.067l0.028,0.067l0.026,0.069l0.024,0.069l0.023,0.07l0.021,0.071l0.019,0.072l0.018,0.072l0.016,0.073l0.014,0.073l0.012,0.074l0.011,0.075l0.008,0.075l0.007,0.076l0.005,0.077l0.003,0.077l0.001,0.077l0,9l-0.001,0.077l-0.003,0.077l-0.005,0.077l-0.007,0.076l-0.008,0.075l-0.011,0.075l-0.012,0.074l-0.014,0.073l-0.016,0.073l-0.018,0.072l-0.019,0.072l-0.021,0.071l-0.023,0.07l-0.024,0.069l-0.026,0.069l-0.028,0.067l-0.029,0.067l-0.031,0.066l-0.032,0.065l-0.034,0.064l-0.036,0.064l-0.037,0.062l-0.038,0.061l-0.04,0.061l-0.041,0.059l-0.042,0.058l-0.044,0.058l-0.045,0.056l-0.047,0.055l-0.048,0.054l-0.049,0.052l-0.05,0.052l-0.052,0.05l-0.052,0.049l-0.054,0.048l-0.055,0.047l-0.056,0.045l-0.058,0.044l-0.058,0.042l-0.059,0.041l-0.061,0.04l-0.061,0.038l-0.062,0.037l-0.064,0.036l-0.064,0.034l-0.065,0.032l-0.066,0.031l-0.067,0.029l-0.067,0.028l-0.069,0.026l-0.069,0.024l-0.07,0.023l-0.071,0.021l-0.072,0.019l-0.072,0.018l-0.073,0.016l-0.073,0.014l-0.074,0.012l-0.075,0.011l-0.075,0.008l-0.076,0.007l-0.077,0.005l-0.077,0.003l-0.077,0.001l-9,0l-0.077,-0.001l-0.077,-0.003l-0.077,-0.005l-0.076,-0.007l-0.075,-0.008l-0.075,-0.011l-0.074,-0.012l-0.073,-0.014l-0.073,-0.016l-0.072,-0.018l-0.072,-0.019l-0.071,-0.021l-0.07,-0.023l-0.069,-0.024l-0.069,-0.026l-0.067,-0.028l-0.067,-0.029l-0.066,-0.031l-0.065,-0.032l-0.064,-0.034l-0.064,-0.036l-0.062,-0.037l-0.061,-0.038l-0.061,-0.04l-0.059,-0.041l-0.058,-0.042l-0.058,-0.044l-0.056,-0.045l-0.055,-0.047l-0.054,-0.048l-0.052,-0.049l-0.052,-0.05l-0.05,-0.052l-0.049,-0.052l-0.048,-0.054l-0.047,-0.055l-0.045,-0.056l-0.044,-0.058l-0.042,-0.058l-0.041,-0.059l-0.04,-0.061l-0.038,-0.061l-0.037,-0.062l-0.036,-0.064l-0.034,-0.064l-0.032,-0.065l-0.031,-0.066l-0.029,-0.067l-0.028,-0.067l-0.026,-0.069l-0.024,-0.069l-0.023,-0.07l-0.021,-0.071l-0.019,-0.072l-0.018,-0.072l-0.016,-0.073l-0.014,-0.073l-0.012,-0.074l-0.011,-0.075l-0.008,-0.075l-0.007,-0.076l-0.005,-0.077l-0.003,-0.077l-0.001,-0.077l0,-9l0.001,-0.077l0.003,-0.077l0.005,-0.077l0.007,-0.076l0.008,-0.075l0.011,-0.075l0.012,-0.074l0.014,-0.073l0.016,-0.073l0.018,-0.072l0.019,-0.072l0.021,-0.071l0.023,-0.07l0.024,-0.069l0.026,-0.069l0.028,-0.067l0.029,-0.067l0.031,-0.066l0.032,-0.065l0.034,-0.064l0.036,-0.064l0.037,-0.062l0.038,-0.061l0.04,-0.061l0.041,-0.059l0.042,-0.058l0.044,-0.058l0.045,-0.056l0.047,-0.055l0.048,-0.054l0.049,-0.052l0.05,-0.052l0.052,-0.05l0.052,-0.049l0.054,-0.048l0.055,-0.047l0.056,-0.045l0.058,-0.044l0.058,-0.042l0.059,-0.041l0.061,-0.04l0.061,-0.038l0.062,-0.037l0.064,-0.036l0.064,-0.034l0.065,-0.032l0.066,-0.031l0.067,-0.029l0.067,-0.028l0.069,-0.026l0.069,-0.024l0.07,-0.023l0.071,-0.021l0.072,-0.019l0.072,-0.018l0.073,-0.016l0.073,-0.014l0.074,-0.012l0.075,-0.011l0.075,-0.008l0.076,-0.007l0.077,-0.005l0.077,-0.003l0.077,-0.001l9,0l0.077,0.001Zm-9.071,0.999l-0.058,0.001l-0.052,0.002l-0.051,0.003l-0.05,0.004l-0.051,0.006l-0.049,0.007l-0.05,0.008l-0.049,0.01l-0.048,0.01l-0.048,0.012l-0.047,0.013l-0.048,0.014l-0.046,0.015l-0.046,0.016l-0.046,0.018l-0.044,0.018l-0.045,0.019l-0.044,0.021l-0.043,0.021l-0.043,0.023l-0.042,0.024l-0.042,0.024l-0.041,0.026l-0.04,0.026l-0.04,0.028l-0.038,0.028l-0.038,0.029l-0.038,0.031l-0.037,0.031l-0.036,0.032l-0.035,0.033l-0.035,0.033l-0.033,0.035l-0.034,0.035l-0.031,0.036l-0.031,0.037l-0.03,0.037l-0.03,0.039l-0.028,0.038l-0.027,0.04l-0.028,0.041l-0.025,0.04l-0.024,0.041l-0.024,0.043l-0.023,0.043l-0.021,0.043l-0.02,0.043l-0.02,0.046l-0.019,0.045l-0.017,0.045l-0.016,0.045l-0.015,0.048l-0.014,0.047l-0.013,0.047l-0.012,0.048l-0.01,0.048l-0.01,0.05l-0.008,0.049l-0.007,0.05l-0.006,0.05l-0.004,0.049l-0.003,0.052l-0.002,0.052l-0.001,0.058l0,8.988l0.001,0.058l0.002,0.052l0.003,0.052l0.004,0.049l0.006,0.05l0.007,0.05l0.008,0.049l0.01,0.049l0.01,0.049l0.012,0.048l0.013,0.047l0.014,0.047l0.015,0.048l0.016,0.045l0.017,0.045l0.019,0.045l0.02,0.046l0.02,0.043l0.021,0.043l0.023,0.043l0.024,0.043l0.024,0.041l0.025,0.04l0.028,0.041l0.027,0.04l0.028,0.038l0.03,0.039l0.03,0.037l0.031,0.037l0.031,0.036l0.034,0.035l0.033,0.035l0.035,0.033l0.035,0.033l0.036,0.032l0.037,0.031l0.038,0.031l0.038,0.029l0.038,0.028l0.04,0.028l0.04,0.026l0.041,0.026l0.042,0.024l0.042,0.024l0.043,0.023l0.043,0.021l0.044,0.021l0.045,0.019l0.044,0.018l0.046,0.018l0.046,0.016l0.046,0.015l0.048,0.014l0.047,0.013l0.048,0.012l0.048,0.01l0.049,0.01l0.05,0.008l0.049,0.007l0.051,0.006l0.05,0.004l0.051,0.003l0.052,0.002l0.058,0.001l8.988,0l0.058,-0.001l0.052,-0.002l0.051,-0.003l0.05,-0.004l0.051,-0.006l0.049,-0.007l0.05,-0.008l0.049,-0.01l0.048,-0.01l0.048,-0.012l0.047,-0.013l0.047,-0.014l0.047,-0.015l0.046,-0.016l0.045,-0.017l0.046,-0.019l0.044,-0.019l0.044,-0.021l0.043,-0.021l0.043,-0.023l0.042,-0.024l0.042,-0.024l0.04,-0.026l0.041,-0.026l0.039,-0.028l0.039,-0.028l0.039,-0.03l0.037,-0.03l0.037,-0.03l0.036,-0.033l0.035,-0.033l0.035,-0.033l0.033,-0.035l0.033,-0.035l0.032,-0.036l0.031,-0.037l0.03,-0.037l0.03,-0.039l0.029,-0.039l0.027,-0.04l0.026,-0.039l0.026,-0.041l0.024,-0.041l0.024,-0.042l0.023,-0.044l0.021,-0.043l0.02,-0.043l0.02,-0.046l0.019,-0.045l0.017,-0.045l0.016,-0.046l0.015,-0.047l0.014,-0.047l0.013,-0.048l0.012,-0.046l0.01,-0.049l0.01,-0.05l0.008,-0.048l0.007,-0.051l0.006,-0.05l0.004,-0.05l0.003,-0.051l0.002,-0.052l0.001,-0.059l0,-8.986l-0.001,-0.059l-0.002,-0.052l-0.003,-0.051l-0.004,-0.05l-0.006,-0.05l-0.007,-0.051l-0.008,-0.048l-0.01,-0.05l-0.01,-0.049l-0.012,-0.046l-0.013,-0.048l-0.014,-0.047l-0.015,-0.047l-0.016,-0.046l-0.017,-0.045l-0.019,-0.045l-0.02,-0.046l-0.02,-0.043l-0.021,-0.043l-0.023,-0.044l-0.024,-0.042l-0.024,-0.041l-0.026,-0.041l-0.026,-0.039l-0.027,-0.04l-0.029,-0.039l-0.03,-0.039l-0.03,-0.037l-0.031,-0.037l-0.032,-0.036l-0.033,-0.035l-0.033,-0.035l-0.035,-0.033l-0.035,-0.033l-0.036,-0.033l-0.037,-0.03l-0.037,-0.03l-0.039,-0.03l-0.039,-0.028l-0.039,-0.028l-0.04,-0.026l-0.041,-0.026l-0.042,-0.024l-0.042,-0.024l-0.043,-0.023l-0.043,-0.021l-0.044,-0.021l-0.044,-0.019l-0.046,-0.019l-0.045,-0.017l-0.046,-0.016l-0.047,-0.015l-0.047,-0.014l-0.047,-0.013l-0.048,-0.012l-0.048,-0.01l-0.049,-0.01l-0.05,-0.008l-0.05,-0.007l-0.05,-0.006l-0.05,-0.004l-0.051,-0.003l-0.052,-0.002l-0.058,-0.001l-8.988,0Z" style="fill:#cdd5df;"/><path d="M6.151,8.065l3.704,0" style="fill:none;stroke:#cdd5df;stroke-width:1px;"/><path d="M6.693,12.755l2.619,2.62" style="fill:none;stroke:#cdd5df;stroke-width:1px;"/><path d="M12.151,8.065l3.704,0" style="fill:none;stroke:#cdd5df;stroke-width:1px;"/><path d="M12.151,14.065l3.704,0" style="fill:none;stroke:#cdd5df;stroke-width:1px;"/><circle cx="14.003" cy="12.669" r="0.545" style="fill:#cdd5df;"/><circle cx="14.003" cy="15.521" r="0.545" style="fill:#cdd5df;"/><path d="M8.003,9.917l0,-3.704" style="fill:none;stroke:#cdd5df;stroke-width:1px;"/><path d="M6.693,15.375l2.619,-2.62" style="fill:none;stroke:#cdd5df;stroke-width:1px;"/></g><circle cx="11" cy="11" r="11" style="fill:none;"/></g></svg>