<?xml version="1.0" encoding="UTF-8" standalone="no"?><!DOCTYPE svg PUBLIC "-//W3C//DTD SVG 1.1//EN" "http://www.w3.org/Graphics/SVG/1.1/DTD/svg11.dtd"><svg width="100%" height="100%" viewBox="0 0 14 14" version="1.1" xmlns="http://www.w3.org/2000/svg" xmlns:xlink="http://www.w3.org/1999/xlink" xml:space="preserve" xmlns:serif="http://www.serif.com/" style="fill-rule:evenodd;clip-rule:evenodd;stroke-linejoin:round;stroke-miterlimit:1.41421;"><path id="icon-close2" d="M7,5.982l5.771,-5.771c0.281,-0.281 0.737,-0.281 1.018,0c0.281,0.281 0.281,0.737 0,1.018l-5.771,5.771l5.771,5.771c0.281,0.281 0.281,0.737 0,1.018c-0.281,0.281 -0.737,0.281 -1.018,0l-5.771,-5.771l-5.771,5.771c-0.281,0.281 -0.737,0.281 -1.018,0c-0.281,-0.281 -0.281,-0.737 0,-1.018l5.771,-5.771l-5.771,-5.771c-0.281,-0.281 -0.281,-0.737 0,-1.018c0.281,-0.281 0.737,-0.281 1.018,0l5.771,5.771Z" style="fill:#d9a959;"/></svg>