<?xml version="1.0" encoding="UTF-8" standalone="no"?><!DOCTYPE svg PUBLIC "-//W3C//DTD SVG 1.1//EN" "http://www.w3.org/Graphics/SVG/1.1/DTD/svg11.dtd"><svg width="100%" height="100%" viewBox="0 0 22 22" version="1.1" xmlns="http://www.w3.org/2000/svg" xmlns:xlink="http://www.w3.org/1999/xlink" xml:space="preserve" xmlns:serif="http://www.serif.com/" style="fill-rule:evenodd;clip-rule:evenodd;stroke-linejoin:round;stroke-miterlimit:1.41421;"><g id="icon-Setup_sel"><path d="M13.212,3.312c1.29,0.382 2.472,1.078 3.433,2.019l-0.573,1.794c0.329,0.439 0.604,0.914 0.819,1.42l1.841,0.4c0.345,1.345 0.347,2.759 0,4.11l-1.841,0.4c-0.215,0.505 -0.489,0.98 -0.819,1.42l0.573,1.794c-0.992,0.972 -2.221,1.681 -3.558,2.054l-1.267,-1.394c-0.545,0.067 -1.094,0.067 -1.64,0l-1.267,1.394c-1.337,-0.373 -2.562,-1.079 -3.558,-2.054l0.573,-1.794c-0.329,-0.439 -0.604,-0.914 -0.819,-1.42l-1.841,-0.4c-0.345,-1.345 -0.347,-2.759 0,-4.11l1.841,-0.4c0.215,-0.505 0.489,-0.98 0.819,-1.42l-0.573,-1.794c0.992,-0.971 2.216,-1.68 3.558,-2.054l1.267,1.394c0.545,-0.067 1.094,-0.067 1.64,0c0,0 0.965,-1.478 1.392,-1.359Zm-4.688,1.141c-0.734,0.284 -1.419,0.682 -2.022,1.184l0.379,1.184c0.211,0.765 -0.1,0.822 -0.311,1.122c-0.642,0.948 -0.658,1.426 -1.249,1.579l-1.215,0.265c-0.168,0.981 0,2.426 0,2.426c0,0 1.292,0.285 1.292,0.285c1.019,0.353 0.557,0.745 1.331,1.777c0,0 0.29,0.405 0.152,0.904l-0.379,1.184c0.766,0.637 2.102,1.214 2.102,1.214c0,0 0.892,-0.977 0.892,-0.977c1.169,-1.012 2.282,-0.27 2.282,-0.27c0.542,0 0.64,0.184 0.782,0.327l0.836,0.92c0.934,-0.345 2.102,-1.214 2.102,-1.214l-0.4,-1.261c-0.155,-0.804 0.907,-2.11 0.907,-2.11c0.148,-0.258 0.274,-0.41 0.674,-0.514l1.215,-0.265c0.169,-0.982 0,-2.426 0,-2.426l-1.292,-0.285c-0.814,-0.282 -1.376,-1.842 -1.376,-1.842c-0.271,-0.47 -0.16,-0.646 -0.107,-0.839l0.379,-1.184c-0.766,-0.637 -2.102,-1.214 -2.102,-1.214c0,0 -0.892,0.977 -0.892,0.977c-0.62,0.536 -2.282,0.27 -2.282,0.27c-0.542,0 -0.64,-0.184 -0.782,-0.327c0,0 -0.641,-0.992 -0.916,-0.89Zm2.556,3.548c2.373,0.09 4.038,3.559 1.788,5.347c-2.216,1.762 -6.564,-1.571 -4.112,-4.34c0.574,-0.648 1.437,-1.019 2.324,-1.007Zm-0.123,0.999c-1.992,0.07 -2.615,3.932 -0.011,3.999c1.903,0.049 3.04,-4.03 0.011,-3.999Z" style="fill:#2b93f6;fill-rule:nonzero;"/><circle cx="11" cy="11" r="11" style="fill:none;"/></g></svg>