<?xml version="1.0" encoding="UTF-8" standalone="no"?><!DOCTYPE svg PUBLIC "-//W3C//DTD SVG 1.1//EN" "http://www.w3.org/Graphics/SVG/1.1/DTD/svg11.dtd"><svg width="100%" height="100%" viewBox="0 0 20 20" version="1.1" xmlns="http://www.w3.org/2000/svg" xmlns:xlink="http://www.w3.org/1999/xlink" xml:space="preserve" xmlns:serif="http://www.serif.com/" style="fill-rule:evenodd;clip-rule:evenodd;stroke-linejoin:round;stroke-miterlimit:1.41421;"><g id="icon-hot_nor"><path d="M6.866,18.846l-0.436,0c0,0 -7.835,-3.171 -2.665,-12.631c0,0 1.122,0.912 1.22,2.81c0,0 4.067,-3.763 3.535,-7.871c0,0 3.099,0.53 4.82,6.45c0,0 1.113,-0.803 0.372,-3.141c1.513,0.737 9.513,9.284 -1.211,14.383l-0.265,0c0.943,-0.949 3.654,-4.504 -3.222,-8.855c0,0 1.371,2.561 -0.278,4.471c0,0 0.327,-0.912 -1.074,-2.509c-0.698,1.113 -3.222,6.028 -0.796,6.893Z" style="fill:#f36363;"/><rect x="0" y="0" width="20" height="20" style="fill:none;"/></g></svg>