<?xml version="1.0" encoding="UTF-8" standalone="no"?><!DOCTYPE svg PUBLIC "-//W3C//DTD SVG 1.1//EN" "http://www.w3.org/Graphics/SVG/1.1/DTD/svg11.dtd"><svg width="100%" height="100%" viewBox="0 0 16 16" version="1.1" xmlns="http://www.w3.org/2000/svg" xmlns:xlink="http://www.w3.org/1999/xlink" xml:space="preserve" xmlns:serif="http://www.serif.com/" style="fill-rule:evenodd;clip-rule:evenodd;stroke-linejoin:round;stroke-miterlimit:1.41421;"><g id="icon-Caution"><path d="M7.052,2.542c0.198,-0.336 0.559,-0.542 0.948,-0.542c0.389,0 0.75,0.206 0.948,0.542c1.47,2.495 4.286,7.274 5.774,9.8c0.201,0.34 0.203,0.761 0.008,1.104c-0.196,0.343 -0.561,0.554 -0.955,0.554c-2.959,0 -8.591,0 -11.55,0c-0.394,0 -0.759,-0.211 -0.955,-0.554c-0.195,-0.343 -0.193,-0.764 0.008,-1.104c1.488,-2.526 4.304,-7.305 5.774,-9.8Zm0.978,8.665c0.202,0 0.37,0.068 0.506,0.204c0.136,0.135 0.204,0.308 0.204,0.517c0,0.21 -0.072,0.382 -0.215,0.518c-0.144,0.135 -0.32,0.203 -0.53,0.203c-0.209,0 -0.38,-0.071 -0.512,-0.215c-0.131,-0.143 -0.197,-0.318 -0.197,-0.523c0,-0.206 0.071,-0.374 0.215,-0.506c0.143,-0.132 0.32,-0.198 0.529,-0.198Zm0.233,-1l0.465,-5.002c0.016,-0.178 -0.05,-0.343 -0.198,-0.494c-0.147,-0.152 -0.323,-0.227 -0.529,-0.227c-0.205,0 -0.384,0.079 -0.535,0.238c-0.151,0.159 -0.219,0.32 -0.204,0.483l0.489,5.002l0.512,0Z" style="fill:#d9a959;"/><rect x="0" y="0" width="16" height="16" style="fill:none;"/></g></svg>