<?xml version="1.0" encoding="UTF-8" standalone="no"?><!DOCTYPE svg PUBLIC "-//W3C//DTD SVG 1.1//EN" "http://www.w3.org/Graphics/SVG/1.1/DTD/svg11.dtd"><svg width="100%" height="100%" viewBox="0 0 100 100" version="1.1" xmlns="http://www.w3.org/2000/svg" xmlns:xlink="http://www.w3.org/1999/xlink" xml:space="preserve" xmlns:serif="http://www.serif.com/" style="fill-rule:evenodd;clip-rule:evenodd;stroke-linejoin:round;stroke-miterlimit:1.41421;"><g id="H5-heads-1"><circle cx="50" cy="50" r="50" style="fill:#fff;"/><clipPath id="_clip1"><circle cx="50" cy="50" r="50"/></clipPath><g clip-path="url(#_clip1)"><ellipse cx="50.124" cy="119.235" rx="48.483" ry="35.383" style="fill:#89c1fc;"/></g><g><path d="M40.546,81.301c-9.861,-4.781 -16.847,-16.619 -16.847,-30.45c0,-18.055 11.905,-32.714 26.568,-32.714c14.664,0 26.569,14.659 26.569,32.714c0,13.938 -7.095,25.851 -17.076,30.56l0,6.661c-6.65,5.788 -13.032,5.361 -19.214,0l0,-6.771Z" style="fill:#ffeadf;"/><clipPath id="_clip2"><path d="M40.546,81.301c-9.861,-4.781 -16.847,-16.619 -16.847,-30.45c0,-18.055 11.905,-32.714 26.568,-32.714c14.664,0 26.569,14.659 26.569,32.714c0,13.938 -7.095,25.851 -17.076,30.56l0,6.661c-6.65,5.788 -13.032,5.361 -19.214,0l0,-6.771Z"/></clipPath><g clip-path="url(#_clip2)"><g><ellipse cx="31.223" cy="66.337" rx="3.887" ry="3.309" style="fill:#fadfdf;"/><ellipse cx="69.312" cy="66.337" rx="3.887" ry="3.309" style="fill:#fadfdf;"/><path d="M50.357,71.538c2.789,0 5.053,-1.256 5.053,-0.473c0,0.783 -2.264,3.309 -5.053,3.309c-2.788,0 -5.052,-2.526 -5.052,-3.309c0,-0.783 2.264,0.473 5.052,0.473Z" style="fill:#766459;"/><ellipse cx="35.455" cy="53.24" rx="3.455" ry="4.727" style="fill:#766459;"/><clipPath id="_clip3"><ellipse cx="35.455" cy="53.24" rx="3.455" ry="4.727"/></clipPath><g clip-path="url(#_clip3)"><ellipse cx="37.506" cy="52.846" rx="0.972" ry="1.182" style="fill:#fff;"/></g><ellipse cx="63.439" cy="53.24" rx="3.455" ry="4.727" style="fill:#766459;"/><clipPath id="_clip4"><ellipse cx="63.439" cy="53.24" rx="3.455" ry="4.727"/></clipPath><g clip-path="url(#_clip4)"><ellipse cx="65.49" cy="52.846" rx="0.972" ry="1.182" style="fill:#fff;"/></g></g></g><path d="M73.94,42.543c-1.255,-6.133 -9.142,-13.822 -11.161,-13.135c-7.904,2.69 -18.464,9.251 -26.115,12.104c-4.147,1.546 -10.002,0.815 -9.57,-1.749c-0.78,-0.931 0.462,18.246 -5.316,15.593c-1.888,-0.867 -14.187,-43.479 25.775,-46.475c0.964,-0.073 1.963,-0.046 2.989,-0.041c0.089,0.018 -0.089,-0.02 0,0c0.311,0.044 2.137,-2.322 2.476,-2.323c0.484,-0.002 0.673,2.438 1.19,2.364c3.435,-0.495 6.144,-2.446 6.617,-2.364c1.195,0.208 -2.105,3.679 -1.034,4.009c28.44,8.76 20.212,45.713 18.413,46.343c-6.187,2.166 -1.04,-4.167 -4.264,-14.326Z" style="fill:#766459;"/><path d="M23.801,48.604c2.725,0 4.937,2.652 4.937,5.918c0,3.265 -2.212,5.917 -4.937,5.917c-2.725,0 -4.937,-2.652 -4.937,-5.917c0,-3.266 2.212,-5.918 4.937,-5.918Zm52.933,0c2.725,0 4.937,2.652 4.937,5.918c0,3.265 -2.212,5.917 -4.937,5.917c-2.725,0 -4.937,-2.652 -4.937,-5.917c0,-3.266 2.212,-5.918 4.937,-5.918Z" style="fill:#ffeadf;"/></g></g></svg>