<?xml version="1.0" encoding="UTF-8" standalone="no"?><!DOCTYPE svg PUBLIC "-//W3C//DTD SVG 1.1//EN" "http://www.w3.org/Graphics/SVG/1.1/DTD/svg11.dtd"><svg width="100%" height="100%" viewBox="0 0 34 34" version="1.1" xmlns="http://www.w3.org/2000/svg" xmlns:xlink="http://www.w3.org/1999/xlink" xml:space="preserve" xmlns:serif="http://www.serif.com/" style="fill-rule:evenodd;clip-rule:evenodd;stroke-linejoin:round;stroke-miterlimit:1.41421;"><g id="H5-icon-next"><path d="M12.531,7.343c0.157,0.027 0.242,0.033 0.442,0.215l8.865,8.865c0.278,0.305 0.288,0.746 0,1.061l-8.865,8.866c-0.998,0.906 -1.612,-0.455 -1.061,-1.061l8.335,-8.335c0,0 -8.383,-8.388 -8.383,-8.388c-0.379,-0.507 -0.166,-1.282 0.667,-1.223Z" style="fill:#cdd5df;fill-rule:nonzero;"/><path d="M18.8,7.343c0.266,0.045 0.324,0.108 0.442,0.215l8.865,8.865c0.284,0.311 0.276,0.758 0,1.061l-8.865,8.866c-1.015,0.922 -1.62,-0.446 -1.061,-1.061l8.335,-8.335c0,0 -8.383,-8.388 -8.383,-8.388c-0.379,-0.507 -0.166,-1.282 0.667,-1.223Z" style="fill:#cdd5df;fill-rule:nonzero;"/><rect x="0" y="0" width="34" height="34" style="fill:none;"/></g></svg>